D:\school\WTK\thesis\model\3dpredictsim\Results\Batchsim_tmt_linear_v2\Pog_s1_tmt_bCst_d05_k1000_ig24_act_GRF.mot
nRows=27
nColumns=19

name D:\school\WTK\thesis\model\3dpredictsim\Results\Batchsim_tmt_linear_v2\Pog_s1_tmt_bCst_d05_k1000_ig24_act_GRF.mot
datacolumns 19
datarows 27
range 0.6381398922 0.9699726361
endheader
time 	ground_force_vx	ground_force_vy	ground_force_vz	ground_force_px	ground_force_py	ground_force_pz	1_ground_force_vx	1_ground_force_vy	1_ground_force_vz	1_ground_force_px	1_ground_force_py	1_ground_force_pz	ground_torque_x	ground_torque_y	ground_torque_z	1_ground_torque_x	1_ground_torque_y	1_ground_torque_z
        0.6381398922	       35.9535074406	      227.6965285264	        6.4189772069	        0.4457513937	        0.0000000000	        0.0368242917	      -88.0580043387	       74.1197697811	      -12.0465109820	        1.0022271994	        0.0000000000	       -0.0519776243	        0.0000000000	        0.0000000000	        0.0000000000	        0.0000000000	        0.0000000000	        0.0000000000	
        0.6509026900	       24.9828701574	      192.5722343756	       10.9957736920	        0.4501706027	        0.0000000000	        0.0357721514	     -133.2204648967	      242.0546482452	      -17.8693537341	        1.0092860085	        0.0000000000	       -0.0510283599	        0.0000000000	        0.0000000000	        0.0000000000	        0.0000000000	        0.0000000000	        0.0000000000	
        0.6636654878	       23.6538331525	      151.7086801154	       12.6584422843	        0.4507032414	        0.0000000000	        0.0359738767	     -102.9735466671	      520.6652358614	        2.4801304004	        1.0139618489	        0.0000000000	       -0.0508019730	        0.0000000000	        0.0000000000	        0.0000000000	        0.0000000000	        0.0000000000	        0.0000000000	
        0.6764282857	       17.0764896955	      100.3114856762	       11.9411852091	        0.4511986733	        0.0000000000	        0.0361712571	     -146.9917499394	      811.2621683478	       19.4266357784	        1.0246033292	        0.0000000000	       -0.0528740270	        0.0000000000	        0.0000000000	        0.0000000000	        0.0000000000	        0.0000000000	        0.0000000000	
        0.6891910835	        1.3139586009	       40.1518753239	        7.0781078091	        0.4506805407	        0.0000000000	        0.0363932621	     -202.5447312466	      999.7305144330	       25.1896090919	        1.0347452136	        0.0000000000	       -0.0551383482	        0.0000000000	        0.0000000000	        0.0000000000	        0.0000000000	        0.0000000000	        0.0000000000	
        0.7019538814	        0.5303217556	       -0.5191451409	        0.0100591140	        0.0000000000	        0.0000000000	        0.0000000000	     -203.8103803706	     1004.2069684194	       25.0689858829	        1.0413246909	        0.0000000000	       -0.0564282277	        0.0000000000	        0.0000000000	        0.0000000000	        0.0000000000	        0.0000000000	        0.0000000000	
        0.7147166792	        0.4353840795	       -0.3348047904	        0.0373829267	        0.0000000000	        0.0000000000	        0.0000000000	     -174.5504382778	      913.7090316926	       22.8349709492	        1.0461944382	        0.0000000000	       -0.0572319857	        0.0000000000	        0.0000000000	        0.0000000000	        0.0000000000	        0.0000000000	        0.0000000000	
        0.7274794771	       -4.5770045318	        3.0204144561	       -0.4181876869	        0.0000000000	        0.0000000000	        0.0000000000	     -151.7242964091	      823.2603347600	       18.6291134520	        1.0505537985	        0.0000000000	       -0.0577534115	        0.0000000000	        0.0000000000	        0.0000000000	        0.0000000000	        0.0000000000	        0.0000000000	
        0.7402422749	       -3.3515644783	        1.9791326236	       -0.2949644876	        0.0000000000	        0.0000000000	        0.0000000000	     -132.0741317757	      772.4155081495	       16.7595356880	        1.0553556349	        0.0000000000	       -0.0581373970	        0.0000000000	        0.0000000000	        0.0000000000	        0.0000000000	        0.0000000000	        0.0000000000	
        0.7530050727	       -2.5302095453	        1.3721290976	       -0.2039094647	        0.0000000000	        0.0000000000	        0.0000000000	     -120.0417192654	      741.8914308674	       15.6093353983	        1.0615448873	        0.0000000000	       -0.0581612344	        0.0000000000	        0.0000000000	        0.0000000000	        0.0000000000	        0.0000000000	        0.0000000000	
        0.7657678706	       -1.9236565318	        0.9791876595	       -0.1378657568	        0.0000000000	        0.0000000000	        0.0000000000	     -108.5015016823	      714.1548722380	       14.7321709705	        1.0674279394	        0.0000000000	       -0.0579291836	        0.0000000000	        0.0000000000	        0.0000000000	        0.0000000000	        0.0000000000	        0.0000000000	
        0.7785306684	       -1.3827847472	        0.6745993343	       -0.0821889859	        0.0000000000	        0.0000000000	        0.0000000000	      -97.3684574337	      684.5057894532	       14.4486819025	        1.0725687553	        0.0000000000	       -0.0576807163	        0.0000000000	        0.0000000000	        0.0000000000	        0.0000000000	        0.0000000000	        0.0000000000	
        0.7912934663	       -1.0446098834	        0.4920688799	       -0.0504270118	        0.0000000000	        0.0000000000	        0.0000000000	      -87.2973805339	      658.5569886025	       14.4085473009	        1.0773178887	        0.0000000000	       -0.0573811172	        0.0000000000	        0.0000000000	        0.0000000000	        0.0000000000	        0.0000000000	        0.0000000000	
        0.8040562641	       -0.8728557805	        0.3997046750	       -0.0337491382	        0.0000000000	        0.0000000000	        0.0000000000	      -78.3474864744	      637.1759755494	       14.9109150730	        1.0817954896	        0.0000000000	       -0.0570791204	        0.0000000000	        0.0000000000	        0.0000000000	        0.0000000000	        0.0000000000	        0.0000000000	
        0.8168190620	       -0.8007832220	        0.3579188770	       -0.0244568730	        0.0000000000	        0.0000000000	        0.0000000000	      -70.3407976279	      619.8899662358	       15.7810669908	        1.0860016722	        0.0000000000	       -0.0567903104	        0.0000000000	        0.0000000000	        0.0000000000	        0.0000000000	        0.0000000000	        0.0000000000	
        0.8295818598	       -0.7968885338	        0.3487197803	       -0.0190726701	        0.0000000000	        0.0000000000	        0.0000000000	      -62.7791704843	      605.5970996839	       16.7623570570	        1.0899909830	        0.0000000000	       -0.0564998679	        0.0000000000	        0.0000000000	        0.0000000000	        0.0000000000	        0.0000000000	        0.0000000000	
        0.8423446576	       -0.8609776777	        0.3692900006	       -0.0162521562	        0.0000000000	        0.0000000000	        0.0000000000	      -55.7794549077	      593.4626381342	       17.6337802452	        1.0937538771	        0.0000000000	       -0.0562077124	        0.0000000000	        0.0000000000	        0.0000000000	        0.0000000000	        0.0000000000	        0.0000000000	
        0.8551074555	       -0.9873530054	        0.4157707514	       -0.0147756540	        0.0000000000	        0.0000000000	        0.0000000000	      -49.6413151884	      583.1590025163	       18.4777011718	        1.0972383352	        0.0000000000	       -0.0559081628	        0.0000000000	        0.0000000000	        0.0000000000	        0.0000000000	        0.0000000000	        0.0000000000	
        0.8678702533	       -1.1637620872	        0.4820781455	       -0.0135827281	        0.0000000000	        0.0000000000	        0.0000000000	      -44.1051583869	      574.0452245012	       18.7591042394	        1.1004068642	        0.0000000000	       -0.0556241458	        0.0000000000	        0.0000000000	        0.0000000000	        0.0000000000	        0.0000000000	        0.0000000000	
        0.8806330512	       -1.3676174872	        0.5584911806	       -0.0118300454	        0.0000000000	        0.0000000000	        0.0000000000	      -39.0268087280	      565.6158260361	       19.0317059138	        1.1032546413	        0.0000000000	       -0.0553482732	        0.0000000000	        0.0000000000	        0.0000000000	        0.0000000000	        0.0000000000	        0.0000000000	
        0.8933958490	       -1.5679760869	        0.6325528579	       -0.0096719027	        0.0000000000	        0.0000000000	        0.0000000000	      -34.1949728170	      557.7625617696	       19.4607524956	        1.1057832984	        0.0000000000	       -0.0550739658	        0.0000000000	        0.0000000000	        0.0000000000	        0.0000000000	        0.0000000000	        0.0000000000	
        0.9061586469	       -1.7276278198	        0.6899850346	       -0.0072496314	        0.0000000000	        0.0000000000	        0.0000000000	      -29.3909354056	      550.5244604864	       19.9569224616	        1.1079947346	        0.0000000000	       -0.0548059204	        0.0000000000	        0.0000000000	        0.0000000000	        0.0000000000	        0.0000000000	        0.0000000000	
        0.9189214447	       -1.8229412147	        0.7221229963	       -0.0050620842	        0.0000000000	        0.0000000000	        0.0000000000	      -24.4641403204	      543.9230778951	       20.3279265007	        1.1099092724	        0.0000000000	       -0.0545474594	        0.0000000000	        0.0000000000	        0.0000000000	        0.0000000000	        0.0000000000	        0.0000000000	
        0.9316842425	       -1.8681383897	        0.7347221042	       -0.0031935269	        0.0000000000	        0.0000000000	        0.0000000000	      -19.2840914579	      538.1396997067	       20.3600391601	        1.1115726952	        0.0000000000	       -0.0542968523	        0.0000000000	        0.0000000000	        0.0000000000	        0.0000000000	        0.0000000000	        0.0000000000	
        0.9444470404	       -1.8962082178	        0.7405156582	       -0.0011810366	        0.0000000000	        0.0000000000	        0.0000000000	      -13.9853736545	      533.3238867439	       20.0338696617	        1.1130006815	        0.0000000000	       -0.0540494686	        0.0000000000	        0.0000000000	        0.0000000000	        0.0000000000	        0.0000000000	        0.0000000000	
        0.9572098382	       -1.8793966321	        0.7293574078	        0.0018416041	        0.0000000000	        0.0000000000	        0.0000000000	       -8.4949954720	      530.0590651928	       19.5307990477	        1.1142200847	        0.0000000000	       -0.0537966667	        0.0000000000	        0.0000000000	        0.0000000000	        0.0000000000	        0.0000000000	        0.0000000000	
        0.9699726361	       -1.7571464586	        0.6784153862	        0.0058346425	        0.0000000000	        0.0000000000	        0.0000000000	       -2.5895153496	      530.4042624355	       18.7201472553	        1.1153757499	        0.0000000000	       -0.0535261781	        0.0000000000	        0.0000000000	        0.0000000000	        0.0000000000	        0.0000000000	        0.0000000000	
